<svg width="18" height="19" viewBox="0 0 18 19" fill="none" xmlns="http://www.w3.org/2000/svg">
    <path d="M14.5313 10.4997C14.2541 10.4997 14.0785 10.4997 13.9036 10.4997C9.73937 10.4997 5.5758 10.4997 1.41158 10.4997C1.26173 10.4997 1.11124 10.5067 0.962039 10.4964C0.419886 10.4604 0.0179349 10.0558 0.000570645 9.53607C-0.0167937 9.02019 0.363935 8.57699 0.895797 8.51009C1.05979 8.48951 1.22829 8.50108 1.39486 8.50108C5.55908 8.50108 9.72265 8.50108 13.8869 8.50108C14.0663 8.50108 14.2457 8.50108 14.5319 8.50108C14.3518 8.30425 14.2399 8.17303 14.119 8.0521C12.2128 6.14229 10.3021 4.23764 8.40039 2.32397C7.75212 1.67172 7.92577 0.767955 8.72903 0.539602C9.21008 0.40259 9.55801 0.639948 9.87957 0.962216C11.5491 2.63723 13.2212 4.30968 14.8934 5.98212C15.8002 6.8891 16.7108 7.79223 17.6138 8.70242C18.1353 9.22795 18.1263 9.7908 17.6009 10.3157C15.0445 12.8707 12.4881 15.425 9.92974 17.9781C9.80047 18.1067 9.66992 18.2405 9.51814 18.3389C9.1149 18.6001 8.61648 18.5364 8.28463 18.2006C7.95214 17.8642 7.89425 17.3676 8.15922 16.9656C8.2589 16.8144 8.39332 16.6851 8.52194 16.5558C10.3915 14.6808 12.2636 12.8076 14.1338 10.9326C14.2464 10.82 14.3499 10.6984 14.5306 10.5009L14.5313 10.4997Z"
          fill="white"/>
</svg>
