<svg width="24" height="26" viewBox="0 0 24 26" fill="none" xmlns="http://www.w3.org/2000/svg">
<path d="M5.69054 2.79838C5.69054 2.33071 5.68746 1.88611 5.69131 1.44151C5.69592 0.989225 5.9313 0.697698 6.28898 0.689237C6.66127 0.680776 6.91126 0.980764 6.91664 1.45305C6.92126 1.88765 6.91741 2.32302 6.91741 2.78761H17.0832C17.0832 2.35071 17.0808 1.91996 17.0832 1.4892C17.0862 0.987687 17.3316 0.678468 17.7139 0.689237C18.0823 0.700006 18.3069 0.996917 18.31 1.48228C18.3123 1.9138 18.31 2.34609 18.31 2.81761C19.35 2.81761 20.3476 2.82223 21.3445 2.81607C22.0422 2.81223 22.6522 3.0276 23.1629 3.50758C23.6929 4.00449 23.9944 4.61369 23.9952 5.34289C24.0006 11.138 24.0029 16.9324 23.9952 22.7276C23.9936 24.1683 22.8229 25.3013 21.3453 25.3059C18.46 25.3152 15.5755 25.309 12.6903 25.309C9.40808 25.309 6.12514 25.309 2.84296 25.309C1.07688 25.309 0.0007692 24.2298 0 22.4568C0.0007692 16.827 0.0007692 11.1988 0.0007692 5.57058C0.0007692 3.90603 1.07303 2.82684 2.7345 2.81761C3.58062 2.813 4.42674 2.81761 5.27363 2.81607C5.39901 2.81607 5.52439 2.80531 5.68977 2.79761L5.69054 2.79838ZM22.7922 9.13582H1.22918C1.22149 9.26197 1.20995 9.36273 1.20995 9.4635C1.20918 13.8349 1.20841 18.207 1.21149 22.5783C1.21149 22.743 1.22457 22.9137 1.2661 23.0722C1.44533 23.7483 1.9753 24.0929 2.82527 24.0929C7.99275 24.0937 13.1595 24.0929 18.3269 24.0929C19.3269 24.0929 20.3269 24.0875 21.3276 24.0952C21.7184 24.0983 22.056 23.9867 22.3452 23.7229C22.7306 23.3714 22.796 22.9176 22.7952 22.4268C22.7906 18.1324 22.7929 13.8372 22.7929 9.54272C22.7929 9.41657 22.7929 9.28966 22.7929 9.13582H22.7922ZM1.22995 7.89356H22.7745C22.7745 6.9759 22.806 6.08056 22.7637 5.18905C22.7345 4.58139 22.2545 4.08525 21.603 4.05141C20.5215 3.99526 19.4346 4.03602 18.3116 4.03602V4.84599C18.3116 5.79057 18.1477 6.1244 17.6893 6.11517C17.2424 6.10671 17.0839 5.7798 17.0839 4.86368V4.03449H6.91741C6.91741 4.48524 6.92049 4.90676 6.91741 5.32905C6.91357 5.80441 6.67358 6.11132 6.30898 6.11517C5.94207 6.11979 5.69515 5.81364 5.69131 5.34212C5.68823 4.90983 5.69131 4.47754 5.69131 4.0191C4.59058 4.0191 3.52909 3.98064 2.47221 4.03295C1.79608 4.06679 1.27687 4.55216 1.2438 5.15521C1.19457 6.05902 1.23072 6.96667 1.23072 7.89356H1.22995Z" fill="white"/>
<path d="M12.0181 16.3032C10.712 16.3094 9.62975 15.2448 9.62514 13.9487C9.62052 12.6642 10.7159 11.568 12.002 11.5696C13.275 11.5711 14.3619 12.6449 14.3749 13.9141C14.388 15.2102 13.3158 16.2971 12.0173 16.3032H12.0181ZM13.1604 13.9703C13.165 13.3095 12.6627 12.7872 12.0127 12.7788C11.3651 12.7703 10.8466 13.2849 10.8397 13.9449C10.8328 14.6079 11.3351 15.1064 12.0066 15.1033C12.6619 15.1002 13.1558 14.6156 13.1604 13.971V13.9703Z" fill="white"/>
<path d="M12.0664 16.8878C13.3825 16.9178 14.4087 17.9916 14.3756 19.3046C14.3425 20.593 13.2395 21.6422 11.9418 21.6192C10.6657 21.5968 9.595 20.4715 9.62577 19.1862C9.65731 17.8985 10.7611 16.8586 12.0664 16.8878ZM13.1618 19.2346C13.1641 18.5724 12.6626 18.0655 12.0049 18.0639C11.3449 18.0631 10.838 18.57 10.8426 19.2277C10.8465 19.8808 11.3619 20.3815 12.0241 20.3784C12.671 20.3754 13.1602 19.8838 13.1618 19.2346Z" fill="white"/>
<path d="M20.5654 19.2763C20.5392 20.6124 19.4669 21.6478 18.1393 21.6193C16.8571 21.5916 15.8171 20.4855 15.844 19.1779C15.8709 17.8887 16.9724 16.8549 18.2839 16.8887C19.5939 16.9226 20.5915 17.9672 20.5654 19.2763ZM18.1947 18.0649C17.5363 18.0702 17.0478 18.5787 17.0586 19.2479C17.0694 19.9063 17.5786 20.3894 18.2516 20.3786C18.8877 20.3686 19.3839 19.8563 19.377 19.2163C19.3693 18.5648 18.8508 18.0595 18.1947 18.0641V18.0649Z" fill="white"/>
<path d="M3.4352 19.2554C3.43058 17.9424 4.46669 16.9002 5.78972 16.8871C7.10197 16.874 8.16116 17.9247 8.15885 19.2354C8.15654 20.5392 7.09428 21.6146 5.80356 21.6192C4.50054 21.6246 3.44058 20.5662 3.43597 19.2554H3.4352ZM6.94428 19.2716C6.96121 18.6009 6.47815 18.0778 5.83048 18.0655C5.16666 18.0532 4.63976 18.5455 4.62438 19.1931C4.60899 19.8339 5.1282 20.3677 5.77664 20.3793C6.43661 20.3908 6.92813 19.9254 6.94428 19.2724V19.2716Z" fill="white"/>
<path d="M5.80606 16.3027C4.4915 16.3081 3.4377 15.2589 3.43616 13.9436C3.43462 12.6336 4.50458 11.5591 5.80068 11.5683C7.08755 11.5775 8.14827 12.6352 8.15827 13.919C8.16827 15.2258 7.11062 16.2973 5.80606 16.3027ZM6.94448 13.9736C6.9514 13.3021 6.46142 12.7867 5.8076 12.7775C5.16532 12.7682 4.6338 13.2905 4.6238 13.9405C4.61457 14.592 5.12917 15.1043 5.79375 15.1035C6.45296 15.1035 6.93756 14.6274 6.94371 13.9736H6.94448Z" fill="white"/>
<path d="M20.5654 13.952C20.5592 15.2681 19.5046 16.3111 18.1878 16.3026C16.8848 16.2949 15.8302 15.2188 15.8433 13.9112C15.8563 12.6289 16.9255 11.5697 18.2085 11.569C19.5085 11.5674 20.5708 12.642 20.5654 13.952ZM17.0571 13.9081C17.0363 14.5881 17.5078 15.0896 18.1793 15.1027C18.8324 15.1158 19.3508 14.6404 19.3754 14.0066C19.4008 13.3558 18.9016 12.8066 18.2585 12.7789C17.6047 12.7505 17.0763 13.2466 17.0563 13.9081H17.0571Z" fill="white"/>
</svg>
