<svg width="242" height="33" viewBox="0 0 242 33" fill="none" xmlns="http://www.w3.org/2000/svg">
    <g clip-path="url(#clip0_11_225)">
        <path fill-rule="evenodd" clip-rule="evenodd"
              d="M9.78931 4.86539V9.73077H4.89466H0V14.6667V19.6026H4.96559H9.93118V14.7372V9.87179H14.8259H19.7205V4.9359V0H14.7549H9.78931V4.86539ZM237.947 0.0940157C235.179 0.987178 234.943 4.91239 237.592 6.0406C238.159 6.27565 239.602 6.27565 240.169 6.0171C242.534 4.9594 242.628 1.48077 240.335 0.305553C239.815 0.0470057 238.467 -0.0940185 237.947 0.0940157ZM240.098 0.846155C242.888 2.2329 241.044 6.48718 238.041 5.59401C235.251 4.77136 235.937 0.564101 238.869 0.564101C239.342 0.564101 239.696 0.634617 240.098 0.846155ZM237.592 3.07906V5.02991H237.875C238.159 5.02991 238.159 5.00642 238.159 4.27778V3.52563H238.633C239.104 3.52563 239.104 3.52565 239.436 4.27778C239.72 4.91239 239.815 5.02991 240.075 5.02991C240.452 5.02991 240.452 4.9359 240.028 4.08974L239.672 3.40812L239.956 3.17307C240.311 2.89102 240.452 2.27992 240.239 1.80983C240.004 1.24573 239.72 1.1282 238.608 1.1282H237.592V3.07906ZM239.389 1.69231C240.216 1.99787 239.791 2.96154 238.821 2.96154H238.182V2.27992V1.59829H238.633C238.893 1.59829 239.223 1.64531 239.389 1.69231ZM45.1159 6.11111V8.34401H42.8696H40.5996V10.4594V12.5748L42.8696 12.5512L45.1395 12.5278L45.1633 10.4829L45.1868 8.43803H47.315H49.4431V6.13461V3.87821H47.2441H45.045V6.11111H45.1159ZM78.3381 15.0662V26.2543H80.5371H82.7362V19.25V12.2457L85.6447 12.2927C90.8703 12.3633 90.7994 12.2693 90.7994 20.8483V26.2778H92.9275H95.0555V20.0491C95.0555 13.0918 95.032 12.8804 94.2989 11.3996C93.0457 8.88461 90.5156 7.80342 86.9688 8.2735L85.9993 8.39103L84.6988 9.51923C83.6584 10.4359 83.351 10.6474 83.0436 10.6474H82.6889V7.26282V3.87821H80.4898H78.2908V15.0662H78.3381ZM219.361 6.11111V8.34401H216.925H214.514V10.4594V12.5748L216.925 12.5043L219.361 12.4338V16.8995C219.361 22.4466 219.479 23.0342 220.898 24.4444C222.198 25.7372 223.499 26.1133 226.951 26.1838L229.529 26.2307V24.3269V22.3526H227.495C223.688 22.3526 223.759 22.4466 223.759 16.594V12.5983H226.644H229.529V10.4829V8.36752H228.275H227.023L225.698 9.68376C224.657 10.7415 224.303 11 224.067 11H223.759V7.45086V3.87821H221.559H219.361V6.11111ZM64.7182 7.89744C61.0295 8.48505 58.2156 11.1645 57.459 14.8312C56.986 17.1582 57.2935 19.8611 58.3103 21.8824C60.8403 26.9829 68.5015 27.9466 72.8287 23.7158C73.4435 23.1046 74.673 21.5063 74.673 21.2949C74.673 21.2008 72.0957 19.25 71.8592 19.1795C71.7882 19.156 71.5755 19.344 71.41 19.6261C68.8561 23.6454 63.3231 23.6923 61.9754 19.7201C61.5261 18.4273 60.7931 18.5684 68.2887 18.5213L74.8385 18.4978L74.8858 17.5341C75.0751 12.7863 72.7105 9.11966 68.8325 8.10897C67.7685 7.85043 65.6876 7.7329 64.7182 7.89744ZM139.344 7.94444C135.561 8.53205 132.984 10.9765 132.534 14.4082L132.464 15.0193H134.26C136.648 15.0193 136.719 14.9957 136.861 14.4082C137.311 12.5983 138.776 11.7521 141.378 11.7756C144.381 11.7991 145.61 12.7393 145.846 15.2073L145.918 15.9359L141.189 15.9829C136.08 16.0299 135.844 16.0534 134.496 16.7116C131.186 18.3099 131.446 23.7863 134.922 25.5256C136.104 26.1133 136.553 26.1838 139.509 26.2543L142.3 26.3012L143.836 25.1495C145.846 23.6454 145.846 23.6452 146.296 25.1026L146.627 26.2307L148.423 26.2543L150.222 26.2778L150.292 21.4359C150.386 14.9017 150.269 13.6795 149.37 11.8462C147.88 8.7906 143.861 7.23931 139.344 7.94444ZM202.218 7.89744C198.222 8.46154 195.692 10.765 195.148 14.3611L195.053 15.0193H196.921C199.262 14.9957 199.262 14.9957 199.522 14.2671C200.066 12.6923 201.367 11.8462 203.424 11.7286C206.616 11.5641 208.2 12.6454 208.484 15.2073L208.554 15.9124L203.779 15.9594C198.53 16.0065 198.317 16.0299 196.969 16.7585C193.941 18.3568 194.084 23.3398 197.205 25.3141C198.387 26.0662 198.954 26.1602 202.076 26.2307L204.914 26.2778L206.45 25.1026C208.437 23.5983 208.46 23.5983 208.909 25.1261L209.24 26.2543H211.085H212.93L212.883 20.2607C212.834 13.0213 212.74 12.5043 211.179 10.5534C209.525 8.50855 205.764 7.40384 202.218 7.89744ZM108.344 8.17948C108.25 8.20298 107.919 8.25 107.611 8.29701C107.044 8.36752 106.689 8.62607 104.632 10.5064C104.396 10.7415 104.254 10.765 103.923 10.6944L103.521 10.6239L103.261 9.51923L102.977 8.41452L101.109 8.39103L99.2409 8.34401V17.2991V26.2543H101.44H103.639V19.25V12.2457L106.618 12.2927L109.598 12.3398L110.26 12.6688C111.749 13.3974 111.844 13.8676 111.844 20.8012V26.2778H114.043H116.242V19.2735V12.2693L119.269 12.3162C122.673 12.3633 122.981 12.4338 123.714 13.2565C124.47 14.1026 124.494 14.2671 124.519 20.5897L124.566 26.3012H126.74H128.916V20.0727C128.916 13.1154 128.893 12.8804 128.088 11.3526C126.883 9.09614 124.73 8.08546 121.468 8.2265C118.441 8.36752 118.701 8.2735 117.164 9.63675C115.509 11.094 115.367 11.1175 114.327 10.0363C113.168 8.81411 111.868 8.29701 109.881 8.2265C109.125 8.15599 108.439 8.15597 108.344 8.17948ZM160.814 8.20299C155.683 9.02563 152.799 12.1282 152.752 16.8995C152.703 22.7522 155.801 26.1367 161.193 26.1367H162.753L164.172 25.0556C165.259 24.2329 165.685 23.9744 165.945 23.9744H166.3L166.229 24.985C166.087 27.0534 165.378 28.3227 164.054 28.9102C163.463 29.1688 163.391 29.1923 159.324 29.2158L155.186 29.2393V31.1196V33H159.088C165.071 33 166.655 32.6005 168.428 30.6731C170.248 28.6988 170.414 27.5705 170.461 16.6176L170.485 8.41452L169.043 8.34401C166.939 8.2265 161.217 8.13247 160.814 8.20299ZM183.302 8.25C182.497 8.36752 182.497 8.36752 181.173 9.49573C179.967 10.5534 179.825 10.6239 179.376 10.6239H178.903L178.619 9.47222L178.336 8.32051H176.443H174.552V17.2756V26.2307H176.752H178.951V19.2265V12.2222L181.977 12.2693C185.406 12.3162 185.689 12.3633 186.375 13.1859C187.156 14.079 187.179 14.2906 187.227 20.5897L187.274 26.2307H189.401H191.53L191.507 19.7201L191.483 13.2094L191.152 12.3162C190.04 9.11966 187.274 7.6859 183.302 8.25ZM48.3554 11.6581L44.974 14.9488L45.045 18.3333C45.1159 22.5641 45.2815 23.2693 46.4638 24.515C47.6223 25.7607 48.9702 26.1133 52.5879 26.2073L55.2836 26.2778L55.26 24.3505L55.2363 22.4231L52.9899 22.3761C49.3721 22.2821 49.5376 22.5171 49.5376 16.7821V12.6218L52.3988 12.5983L55.26 12.5748V10.5064V8.43803L53.5338 8.41452L51.8076 8.39103L48.3554 11.6581ZM18.9401 18.8269L9.78931 27.923V28.6282V29.3333H14.7549H19.7205V24.4679V19.6026H24.6152H29.5098V14.6667V9.73077H28.7768H28.0438L18.9401 18.8269ZM67.7922 11.7051C69.1636 12.1282 70.204 13.421 70.4404 15.0193L70.5114 15.4658H66.1369C63.7251 15.4658 61.7388 15.4188 61.7388 15.3718C61.7388 15.1602 62.1172 14.0085 62.33 13.609C63.2286 11.8227 65.5694 11 67.7922 11.7051ZM166.276 17.1346V22.3526L163.25 22.3056L160.223 22.2585L159.466 21.906C157.409 20.9423 156.534 18.2393 157.362 15.3248C158.095 12.6688 159.513 11.9167 163.841 11.8932H166.3V17.1346H166.276ZM145.846 20.8483V22.7287L141.732 22.6816C137.736 22.6346 137.594 22.6346 137.121 22.3995C136.033 21.8119 136.01 19.9787 137.098 19.3205C137.641 18.9915 137.996 18.9679 142.111 18.9679H145.823V20.8483H145.846ZM208.531 20.8483V22.7287L204.416 22.6816C199.829 22.6346 199.64 22.6111 199.191 21.8824C198.741 21.1304 198.978 19.8611 199.665 19.344C200.113 19.015 200.728 18.9679 204.748 18.9679H208.531V20.8483Z"
              fill="white"/>
    </g>
    <defs>
        <clipPath id="clip0_11_225">
            <rect width="242" height="33" fill="white"/>
        </clipPath>
    </defs>
</svg>
