<svg width="21" height="13" viewBox="0 0 21 13" fill="none" xmlns="http://www.w3.org/2000/svg">
    <path d="M6.94422 0.890275C7.11752 0.483157 7.4149 0.253574 7.77201 0.186553C8.99631 -0.0444563 10.2291 -0.067272 11.4574 0.153755C12.0311 0.257139 12.2077 0.453924 12.2766 1.08207C12.3232 1.50345 12.3016 1.93481 12.2983 2.36189C12.2911 3.33583 12.2681 4.31049 12.272 5.28444C12.2727 5.51473 12.3232 5.75858 12.4053 5.97176C12.5655 6.38815 12.8884 6.47442 13.1799 6.15643C13.5324 5.77141 13.8699 5.36144 14.158 4.91939C14.8723 3.82209 15.4408 2.63496 15.9023 1.38723C16.1727 0.65784 16.2259 0.623616 16.9368 0.619338C17.9983 0.613634 19.0598 0.605792 20.1207 0.599375C20.208 0.599375 20.2959 0.596523 20.3832 0.605079C20.9045 0.656414 21.1224 0.93448 20.932 1.46495C20.7075 2.0881 20.4298 2.70341 20.0859 3.25669C19.4629 4.25916 18.7769 5.21599 18.1119 6.18708C17.3616 7.28224 17.3852 7.55104 18.2596 8.51001C18.9745 9.29359 19.6874 10.0829 20.3576 10.9106C20.615 11.2286 20.8086 11.6415 20.9301 12.0472C21.0771 12.5377 20.827 12.9035 20.3478 12.9248C19.1891 12.9755 18.0285 13.0218 16.8705 12.989C16.2758 12.9719 15.7847 12.5741 15.3738 12.1135C14.9556 11.6443 14.5618 11.1495 14.1515 10.6725C14.0176 10.5164 13.8738 10.3681 13.7202 10.2362C13.2541 9.83475 12.8543 9.88608 12.6022 10.4736C12.4191 10.9 12.3186 11.3941 12.2865 11.8661C12.2248 12.7666 12.0777 12.9591 11.2322 12.9569C10.3053 12.9541 9.37049 13.0404 8.47048 12.7038C6.84772 12.0971 5.51445 11.054 4.44245 9.59661C2.63719 7.1375 1.2665 4.40746 0.109825 1.54052C-0.140943 0.918082 0.0349882 0.614347 0.665845 0.605792C1.63937 0.592245 2.61356 0.592245 3.58709 0.595097C3.99934 0.596523 4.26849 0.821115 4.45427 1.22752C5.05558 2.54228 5.65756 3.85774 6.3022 5.14683C6.4952 5.53185 6.79783 5.87408 7.10702 6.16356C7.54225 6.57067 7.87639 6.46016 8.04378 5.87551C8.15276 5.49477 8.23284 5.08694 8.23416 4.69052C8.23744 3.83849 8.19674 2.98576 8.14357 2.13516C8.1009 1.44926 7.72081 1.0728 7.10702 0.958009C7.05713 0.94874 7.01117 0.919508 6.94422 0.890988V0.890275Z"
          fill="#111111"/>
</svg>
