<svg width="24" height="24" viewBox="0 0 24 24" fill="none" xmlns="http://www.w3.org/2000/svg">
    <path d="M7.94422 5.89027C8.11752 5.48316 8.4149 5.25357 8.77201 5.18655C9.99631 4.95554 11.2291 4.93273 12.4574 5.15376C13.0311 5.25714 13.2077 5.45392 13.2766 6.08207C13.3232 6.50345 13.3016 6.93481 13.2983 7.36189C13.2911 8.33583 13.2681 9.31049 13.272 10.2844C13.2727 10.5147 13.3232 10.7586 13.4053 10.9718C13.5655 11.3881 13.8884 11.4744 14.1799 11.1564C14.5324 10.7714 14.8699 10.3614 15.158 9.91939C15.8723 8.82209 16.4408 7.63496 16.9023 6.38723C17.1727 5.65784 17.2259 5.62362 17.9368 5.61934C18.9983 5.61363 20.0598 5.60579 21.1207 5.59937C21.208 5.59937 21.2959 5.59652 21.3832 5.60508C21.9045 5.65641 22.1224 5.93448 21.932 6.46495C21.7075 7.0881 21.4298 7.70341 21.0859 8.25669C20.4629 9.25916 19.7769 10.216 19.1119 11.1871C18.3616 12.2822 18.3852 12.551 19.2596 13.51C19.9745 14.2936 20.6874 15.0829 21.3576 15.9106C21.615 16.2286 21.8086 16.6415 21.9301 17.0472C22.0771 17.5377 21.827 17.9035 21.3478 17.9248C20.1891 17.9755 19.0285 18.0218 17.8705 17.989C17.2758 17.9719 16.7847 17.5741 16.3738 17.1135C15.9556 16.6443 15.5618 16.1495 15.1515 15.6725C15.0176 15.5164 14.8738 15.3681 14.7202 15.2362C14.2541 14.8347 13.8543 14.8861 13.6022 15.4736C13.4191 15.9 13.3186 16.3941 13.2865 16.8661C13.2248 17.7666 13.0777 17.9591 12.2322 17.9569C11.3053 17.9541 10.3705 18.0404 9.47048 17.7038C7.84772 17.0971 6.51445 16.054 5.44245 14.5966C3.63719 12.1375 2.2665 9.40746 1.10982 6.54052C0.859057 5.91808 1.03499 5.61435 1.66584 5.60579C2.63937 5.59224 3.61356 5.59224 4.58709 5.5951C4.99934 5.59652 5.26849 5.82111 5.45427 6.22752C6.05558 7.54228 6.65756 8.85774 7.3022 10.1468C7.4952 10.5318 7.79783 10.8741 8.10702 11.1636C8.54225 11.5707 8.87639 11.4602 9.04378 10.8755C9.15276 10.4948 9.23284 10.0869 9.23416 9.69052C9.23744 8.83849 9.19674 7.98576 9.14357 7.13516C9.1009 6.44926 8.72081 6.0728 8.10702 5.95801C8.05713 5.94874 8.01117 5.91951 7.94422 5.89099V5.89027Z"
          fill="white"/>
</svg>
